<?xml version="1.0" encoding="UTF-8"?>
<svg version="1.1" xmlns="http://www.w3.org/2000/svg" width="270" height="148">
<path d="M0 0 C89.1 0 178.2 0 270 0 C270 48.84 270 97.68 270 148 C180.9 148 91.8 148 0 148 C0 99.16 0 50.32 0 0 Z " fill="#FAFAFA" transform="translate(0,0)"/>
<path d="M0 0 C2.54271822 2.23206939 4.98571873 4.53088101 7.40234375 6.8984375 C8.03011719 7.49011719 8.65789062 8.08179687 9.3046875 8.69140625 C15.3576895 14.90911578 19.01477422 22.99629272 22.40234375 30.8984375 C22.69584717 31.56955566 22.98935059 32.24067383 23.29174805 32.93212891 C25.90925269 39.67524201 25.81326953 46.24091487 25.71484375 53.3984375 C25.71806641 54.57019531 25.72128906 55.74195312 25.72460938 56.94921875 C25.60112612 76.95350589 17.33936221 92.87742491 3.46484375 107.1328125 C-1.50241513 111.87191645 -7.48055291 114.90141882 -13.59765625 117.8984375 C-14.47035156 118.32898438 -15.34304687 118.75953125 -16.2421875 119.203125 C-32.30015641 126.69866756 -50.70792082 126.85308274 -67.34765625 121.0234375 C-84.22058516 114.43887988 -98.83233662 102.88465739 -106.44189453 86.02832031 C-115.32753272 65.08177265 -115.34767055 45.9818836 -107.47265625 24.7109375 C-100.55437712 9.13952026 -86.73147393 -4.39843359 -70.87890625 -10.54296875 C-46.57495216 -19.11345201 -20.43788062 -16.53470643 0 0 Z " fill="#77B902" transform="translate(182.59765625,19.1015625)"/>
<path d="M0 0 C1.67542976 0.28604898 3.34385343 0.61781233 5 1 C5.042721 2.66611905 5.04063832 4.33382885 5 6 C4.67 6.33 4.34 6.66 4 7 C3.84313751 8.55948542 3.74923361 10.12542668 3.68359375 11.69140625 C3.64548584 12.54162354 3.60737793 13.39184082 3.56811523 14.26782227 C3.52501221 15.35506592 3.48190918 16.44230957 3.4375 17.5625 C3.293125 21.006875 3.14875 24.45125 3 28 C12.24 28 21.48 28 31 28 C31 20.74 31 13.48 31 6 C41.23 6 51.46 6 62 6 C62 6.66 62 7.32 62 8 C52.43 8 42.86 8 33 8 C33 14.6 33 21.2 33 28 C45.87 28 58.74 28 72 28 C72.495 28.99 72.495 28.99 73 30 C59.8 30 46.6 30 33 30 C33.5297995 40.56142837 33.5297995 40.56142837 35 51 C32.525 51.495 32.525 51.495 30 52 C29.505 49.525 29.505 49.525 29 47 C29.66 47 30.32 47 31 47 C31 41.39 31 35.78 31 30 C21.1 30 11.2 30 1 30 C0.5625 18.5625 0.5625 18.5625 0.43188477 14.95141602 C0.39377686 14.01998779 0.35566895 13.08855957 0.31640625 12.12890625 C0.26141968 10.69140015 0.26141968 10.69140015 0.20532227 9.22485352 C0.24165576 7.02861075 0.24165576 7.02861075 -1 6 C-1.125 3.5 -1.125 3.5 -1 1 C-0.67 0.67 -0.34 0.34 0 0 Z " fill="#000000" transform="translate(5,89)"/>
<path d="M0 0 C1.66946444 0.31902567 3.33543915 0.65630525 5 1 C7.43505237 1.21698487 9.87301384 1.40290745 12.3125 1.5625 C14.519375 1.706875 16.72625 1.85125 19 2 C19 7.94 19 13.88 19 20 C32.53 20 46.06 20 60 20 C60 20.66 60 21.32 60 22 C46.47 22 32.94 22 19 22 C19 28.6 19 35.2 19 42 C31.54 42 44.08 42 57 42 C57 42.66 57 43.32 57 44 C43.8 44 30.6 44 17 44 C17 36.74 17 29.48 17 22 C9.08 22 1.16 22 -7 22 C-7 21.34 -7 20.68 -7 20 C0.92 20 8.84 20 17 20 C17 15.05 17 10.1 17 5 C13.90625 5.2165625 13.90625 5.2165625 10.75 5.4375 C9.58984375 5.51871094 8.4296875 5.59992187 7.234375 5.68359375 C4.12414323 5.88916293 4.12414323 5.88916293 1.703125 6.66015625 C1.14109375 6.77230469 0.5790625 6.88445313 0 7 C-0.66 6.34 -1.32 5.68 -2 5 C-1.46428571 1.46428571 -1.46428571 1.46428571 0 0 Z " fill="#282828" transform="translate(7,30)"/>
<path d="M0 0 C10.17966102 -0.48474576 10.17966102 -0.48474576 13.75 1.625 C15.44949446 4.85403947 14.9236164 6.51867666 14 10 C13.27802838 12.60611077 13.27802838 12.60611077 13 15 C13.99 16.485 13.99 16.485 15 18 C15 18.99 15 19.98 15 21 C12.6875 20.875 12.6875 20.875 10 20 C7 15.13793103 7 15.13793103 7 12 C6.01 12 5.02 12 4 12 C4 14.64 4 17.28 4 20 C2.68 20 1.36 20 0 20 C0 13.4 0 6.8 0 0 Z " fill="#EFF6E3" transform="translate(167,62)"/>
<path d="M0 0 C19.47 0 38.94 0 59 0 C59 0.99 59 1.98 59 3 C39.53 3 20.06 3 0 3 C0 2.01 0 1.02 0 0 Z " fill="#585858" transform="translate(211,94)"/>
<path d="M0 0 C3.5625 0.3125 3.5625 0.3125 5.2578125 1.5546875 C7.32707596 4.34261731 7.0346912 6.78180004 6.9140625 10.1484375 C6.5625 12.3125 6.5625 12.3125 4.875 14.875 C2.11065528 16.59337645 0.75875513 16.88618682 -2.4375 16.3125 C-4.0703125 15.1328125 -4.0703125 15.1328125 -5.4375 13.3125 C-5.80078125 10.68359375 -5.80078125 10.68359375 -5.75 7.75 C-5.74613281 6.77933594 -5.74226562 5.80867188 -5.73828125 4.80859375 C-5.24544461 0.71868968 -3.99581556 0.36325596 0 0 Z " fill="#F0F7E4" transform="translate(144.4375,66.6875)"/>
<path d="M0 0 C1.67542976 0.28604898 3.34385343 0.61781233 5 1 C4.67 2.65 4.34 4.3 4 6 C-17.78 5.505 -17.78 5.505 -40 5 C-40 4.01 -40 3.02 -40 2 C-38.82381104 1.97494385 -37.64762207 1.9498877 -36.43579102 1.92407227 C-32.08785378 1.83017194 -27.74008284 1.72990952 -23.39233398 1.62768555 C-21.50760782 1.58427067 -19.62284064 1.54260057 -17.73803711 1.50268555 C-15.03486751 1.44514107 -12.33190564 1.38140196 -9.62890625 1.31640625 C-8.78099014 1.29969376 -7.93307404 1.28298126 -7.0594635 1.26576233 C-3.21707924 1.53590805 -3.21707924 1.53590805 0 0 Z " fill="#898989" transform="translate(254,70)"/>
<path d="M0 0 C3.35772443 0.54819991 4.83305339 0.9275616 7.0625 3.5 C7.3125 6.6875 7.3125 6.6875 7.0625 9.5 C4.0925 9.5 1.1225 9.5 -1.9375 9.5 C-1.6075 10.16 -1.2775 10.82 -0.9375 11.5 C1.38406597 11.90729228 3.7193787 12.24438677 6.0625 12.5 C5.7325 13.49 5.4025 14.48 5.0625 15.5 C-0.5625 16.625 -0.5625 16.625 -3.9375 15.5 C-6.42136059 11.77420911 -6.3179212 9.91288598 -5.9375 5.5 C-4.50635293 1.76311598 -4.0089033 0.68236652 0 0 Z " fill="#ECF5DD" transform="translate(98.9375,66.5)"/>
<path d="M0 0 C4.95 0 9.9 0 15 0 C15 1.32 15 2.64 15 4 C13.35 4 11.7 4 10 4 C10 9.61 10 15.22 10 21 C8.35 21 6.7 21 5 21 C5 15.39 5 9.78 5 4 C3.35 4 1.7 4 0 4 C0 2.68 0 1.36 0 0 Z " fill="#E7F2D4" transform="translate(80,62)"/>
<path d="M0 0 C4.95 0 9.9 0 15 0 C15 1.32 15 2.64 15 4 C13.35 4 11.7 4 10 4 C10 9.61 10 15.22 10 21 C8.35 20.67 6.7 20.34 5 20 C5 14.72 5 9.44 5 4 C3.35 4 1.7 4 0 4 C0 2.68 0 1.36 0 0 Z " fill="#E5F1D2" transform="translate(184,62)"/>
<path d="M0 0 C1.2065625 0.0309375 1.2065625 0.0309375 2.4375 0.0625 C2.7675 1.7125 3.0975 3.3625 3.4375 5.0625 C2.4475 5.3925 1.4575 5.7225 0.4375 6.0625 C0.4375 9.0325 0.4375 12.0025 0.4375 15.0625 C13.6375 15.0625 26.8375 15.0625 40.4375 15.0625 C40.4375 15.7225 40.4375 16.3825 40.4375 17.0625 C26.5775 17.0625 12.7175 17.0625 -1.5625 17.0625 C-1.8925 13.4325 -2.2225 9.8025 -2.5625 6.0625 C-2.8925 4.4125 -3.2225 2.7625 -3.5625 1.0625 C-2.5625 0.0625 -2.5625 0.0625 0 0 Z " fill="#2A2A2A" transform="translate(37.5625,12.9375)"/>
<path d="M0 0 C0.33 1.32 0.66 2.64 1 4 C-0.98 4 -2.96 4 -5 4 C-5 4.66 -5 5.32 -5 6 C-4.21625 5.95875 -3.4325 5.9175 -2.625 5.875 C0 6 0 6 2 8 C2.375 10.4375 2.375 10.4375 2 13 C-0.32000152 15.587694 -1.64794962 15.97183597 -5.125 16.25 C-8 16 -8 16 -10 15 C-10 14.01 -10 13.02 -10 12 C-7.36 12 -4.72 12 -2 12 C-2 11.01 -2 10.02 -2 9 C-4.64 8.67 -7.28 8.34 -10 8 C-9.74438677 5.6568787 -9.40729228 3.32156597 -9 1 C-6.04335481 -0.4783226 -3.25770263 -0.06032783 0 0 Z " fill="#ECF5DE" transform="translate(134,67)"/>
<path d="M0 0 C2 2 2 2 2.1953125 5.0390625 C2.17210938 6.22242187 2.14890625 7.40578125 2.125 8.625 C2.10695313 9.81351563 2.08890625 11.00203125 2.0703125 12.2265625 C2.04710938 13.14179687 2.02390625 14.05703125 2 15 C1.01 15 0.02 15 -1 15 C-1.33 11.7 -1.66 8.4 -2 5 C-3.32 4.67 -4.64 4.34 -6 4 C-6 7.96 -6 11.92 -6 16 C-7.32 16 -8.64 16 -10 16 C-10 11.05 -10 6.1 -10 1 C-3.55769231 -0.28846154 -3.55769231 -0.28846154 0 0 Z " fill="#F1F7E6" transform="translate(119,67)"/>
<path d="M0 0 C1.67542976 0.28604898 3.34385343 0.61781233 5 1 C5 2.65 5 4.3 5 6 C3.34385343 6.38218767 1.67542976 6.71395102 0 7 C-0.33 6.67 -0.66 6.34 -1 6 C-2.99782126 5.84174742 -5.00088834 5.74880829 -7.00390625 5.68359375 C-8.21884766 5.64169922 -9.43378906 5.59980469 -10.68554688 5.55664062 C-11.96494141 5.51732422 -13.24433594 5.47800781 -14.5625 5.4375 C-15.84576172 5.39431641 -17.12902344 5.35113281 -18.45117188 5.30664062 C-21.63399853 5.200152 -24.81690674 5.09814038 -28 5 C-27.67 4.01 -27.34 3.02 -27 2 C-26.21761963 1.97494385 -25.43523926 1.9498877 -24.62915039 1.92407227 C-21.10675051 1.80850212 -17.5846444 1.68560051 -14.0625 1.5625 C-12.83080078 1.52318359 -11.59910156 1.48386719 -10.33007812 1.44335938 C-8.5753418 1.38051758 -8.5753418 1.38051758 -6.78515625 1.31640625 C-5.70113525 1.27974854 -4.61711426 1.24309082 -3.50024414 1.20532227 C-1.060737 1.27635735 -1.060737 1.27635735 0 0 Z " fill="#3B3B3B" transform="translate(228,114)"/>
<path d="M0 0 C10.23 0 20.46 0 31 0 C31 0.66 31 1.32 31 2 C21.43 2 11.86 2 2 2 C2 8.27 2 14.54 2 21 C1.34 21.33 0.68 21.66 0 22 C0 14.74 0 7.48 0 0 Z " fill="#333333" transform="translate(36,95)"/>
<path d="M0 0 C3.3 0 6.6 0 10 0 C10 1.32 10 2.64 10 4 C8.35 4.33 6.7 4.66 5 5 C4.67 8.63 4.34 12.26 4 16 C2.68 16 1.36 16 0 16 C0 10.72 0 5.44 0 0 Z " fill="#D2E7B1" transform="translate(154,67)"/>
<path d="M0 0 C1.65 0 3.3 0 5 0 C5.38218767 1.65614657 5.71395102 3.32457024 6 5 C5 6 5 6 2.4375 6.0625 C1.2309375 6.0315625 1.2309375 6.0315625 0 6 C0 5.34 0 4.68 0 4 C-7.92 4 -15.84 4 -24 4 C-24 3.34 -24 2.68 -24 2 C-16.08 2 -8.16 2 0 2 C0 1.34 0 0.68 0 0 Z " fill="#1F1F1F" transform="translate(235,48)"/>
<path d="M0 0 C1.66946444 0.31902567 3.33543915 0.65630525 5 1 C7.43505237 1.21698487 9.87301384 1.40290745 12.3125 1.5625 C14.519375 1.706875 16.72625 1.85125 19 2 C19 7.94 19 13.88 19 20 C18.67 20 18.34 20 18 20 C18 14.39 18 8.78 18 3 C17.67 3.66 17.34 4.32 17 5 C14.19921875 5.37890625 14.19921875 5.37890625 10.6875 5.5625 C6.14177682 5.76667208 6.14177682 5.76667208 1.70703125 6.65234375 C1.14371094 6.76707031 0.58039062 6.88179687 0 7 C-0.66 6.34 -1.32 5.68 -2 5 C-1.46428571 1.46428571 -1.46428571 1.46428571 0 0 Z " fill="#393939" transform="translate(7,30)"/>
<path d="M0 0 C2.625 0.375 2.625 0.375 5 1 C4.67 2.65 4.34 4.3 4 6 C2.35 6 0.7 6 -1 6 C-1 5.34 -1 4.68 -1 4 C-13.54 4 -26.08 4 -39 4 C-39 3.67 -39 3.34 -39 3 C-37.88963379 2.98018066 -36.77926758 2.96036133 -35.63525391 2.93994141 C-31.52385398 2.86398919 -27.41281282 2.7752564 -23.30175781 2.68261719 C-21.52090527 2.64428435 -19.73997416 2.60943911 -17.95898438 2.578125 C-15.40205766 2.53256729 -12.8456739 2.47455893 -10.2890625 2.4140625 C-9.49005524 2.40251129 -8.69104797 2.39096008 -7.86782837 2.37905884 C-3.46542788 2.42741056 -3.46542788 2.42741056 0 0 Z " fill="#000000" transform="translate(254,70)"/>
<path d="M0 0 C1.99954746 -0.04254356 4.00041636 -0.04080783 6 0 C7 1 7 1 7.3125 3.375 C7 6 7 6 5.375 7.8125 C2.39101662 9.30449169 0.29779631 9.2867649 -3 9 C-3.66 8.67 -4.32 8.34 -5 8 C-5 7.01 -5 6.02 -5 5 C-2.36 5 0.28 5 3 5 C3 4.01 3 3.02 3 2 C2.01 2 1.02 2 0 2 C0 1.34 0 0.68 0 0 Z " fill="#EEF6E2" transform="translate(129,74)"/>
<path d="M0 0 C0.66 0 1.32 0 2 0 C2.06058594 1.09699219 2.12117188 2.19398437 2.18359375 3.32421875 C2.26804498 4.77865654 2.35269066 6.23308305 2.4375 7.6875 C2.49647461 8.7693457 2.49647461 8.7693457 2.55664062 9.87304688 C2.78185678 13.66707282 3.12839305 17.28651492 4 21 C2.35 21.33 0.7 21.66 -1 22 C-1.33 20.35 -1.66 18.7 -2 17 C-1.34 17 -0.68 17 0 17 C0 11.39 0 5.78 0 0 Z " fill="#1D1D1D" transform="translate(36,119)"/>
<path d="M0 0 C1.67542976 0.28604898 3.34385343 0.61781233 5 1 C5.042721 2.66611905 5.04063832 4.33382885 5 6 C4.67 6.33 4.34 6.66 4 7 C3.84313751 8.55948542 3.74923361 10.12542668 3.68359375 11.69140625 C3.64169922 12.63564453 3.59980469 13.57988281 3.55664062 14.55273438 C3.51732422 15.54595703 3.47800781 16.53917969 3.4375 17.5625 C3.37272461 19.05813477 3.37272461 19.05813477 3.30664062 20.58398438 C3.20019702 23.0558415 3.09818072 25.5278031 3 28 C2.67 28 2.34 28 2 28 C2 21.07 2 14.14 2 7 C1.01 6.67 0.02 6.34 -1 6 C-1.042721 4.33388095 -1.04063832 2.66617115 -1 1 C-0.67 0.67 -0.34 0.34 0 0 Z " fill="#242424" transform="translate(5,89)"/>
<path d="M0 0 C0.99 0.33 1.98 0.66 3 1 C3 2.32 3 3.64 3 5 C5.64 5.33 8.28 5.66 11 6 C11 6.99 11 7.98 11 9 C8.36 9 5.72 9 3 9 C2.67 9.99 2.34 10.98 2 12 C0.35 12.33 -1.3 12.66 -3 13 C-2.01 12.67 -1.02 12.34 0 12 C0 8.04 0 4.08 0 0 Z " fill="#94C840" transform="translate(121,70)"/>
<path d="M0 0 C1.2065625 0.0309375 1.2065625 0.0309375 2.4375 0.0625 C2.81968767 1.71864657 3.15145102 3.38707024 3.4375 5.0625 C2.4375 6.0625 2.4375 6.0625 -0.125 6.125 C-1.3315625 6.0940625 -1.3315625 6.0940625 -2.5625 6.0625 C-2.94468767 4.40635343 -3.27645102 2.73792976 -3.5625 1.0625 C-2.5625 0.0625 -2.5625 0.0625 0 0 Z " fill="#191919" transform="translate(37.5625,12.9375)"/>
<path d="M0 0 C3.125 -0.1875 3.125 -0.1875 6 0 C4.02 0.99 4.02 0.99 2 2 C3.32 2.66 4.64 3.32 6 4 C6 4.99 6 5.98 6 7 C4.02 7 2.04 7 0 7 C-0.66 5.68 -1.32 4.36 -2 3 C-1.34 2.01 -0.68 1.02 0 0 Z " fill="#C0DE8F" transform="translate(96,67)"/>
<path d="M0 0 C2.0625 0.4375 2.0625 0.4375 4 1 C4 2.98 4 4.96 4 7 C2.0625 7.5625 2.0625 7.5625 0 8 C-1 7 -1 7 -1.125 4 C-1 1 -1 1 0 0 Z " fill="#83BF21" transform="translate(143,71)"/>
<path d="M0 0 C2.625 0.375 2.625 0.375 5 1 C4.67 2.65 4.34 4.3 4 6 C2.35 6 0.7 6 -1 6 C-1.625 4.125 -1.625 4.125 -2 2 C-1.34 1.34 -0.68 0.68 0 0 Z " fill="#0D0D0D" transform="translate(254,70)"/>
<path d="M0 0 C1.32 0.33 2.64 0.66 4 1 C4 1.99 4 2.98 4 4 C3.34 4 2.68 4 2 4 C2 7.3 2 10.6 2 14 C1.34 14 0.68 14 0 14 C0 9.38 0 4.76 0 0 Z " fill="#FDFEFB" transform="translate(155,68)"/>
<path d="M0 0 C1.670625 0.061875 1.670625 0.061875 3.375 0.125 C1.395 1.115 1.395 1.115 -0.625 2.125 C0.035 2.785 0.695 3.445 1.375 4.125 C0.385 4.455 -0.605 4.785 -1.625 5.125 C-1.955 7.105 -2.285 9.085 -2.625 11.125 C-2.955 11.125 -3.285 11.125 -3.625 11.125 C-3.769375 10.3825 -3.91375 9.64 -4.0625 8.875 C-4.56131867 6.19688726 -4.56131867 6.19688726 -5.3125 3.9375 C-5.415625 3.339375 -5.51875 2.74125 -5.625 2.125 C-3.625 0.125 -3.625 0.125 0 0 Z " fill="#DEEEC7" transform="translate(144.625,66.875)"/>
<path d="M0 0 C2.31 0 4.62 0 7 0 C7.33 1.32 7.66 2.64 8 4 C6.02 4 4.04 4 2 4 C2 4.66 2 5.32 2 6 C3.65 6 5.3 6 7 6 C7 6.33 7 6.66 7 7 C5.02 7 3.04 7 1 7 C1.20625 6.21625 1.4125 5.4325 1.625 4.625 C1.74875 3.75875 1.8725 2.8925 2 2 C1.34 1.34 0.68 0.68 0 0 Z " fill="#D1E7AF" transform="translate(127,67)"/>
<path d="M0 0 C1.98 0 3.96 0 6 0 C6 1.65 6 3.3 6 5 C4.02 5 2.04 5 0 5 C0 3.35 0 1.7 0 0 Z " fill="#82BE21" transform="translate(171,66)"/>
<path d="M0 0 C1.2684375 0.12375 1.2684375 0.12375 2.5625 0.25 C4.5625 3.25 4.5625 3.25 4.5625 7.25 C3.5725 7.25 2.5825 7.25 1.5625 7.25 C1.43875 6.321875 1.43875 6.321875 1.3125 5.375 C0.74991541 3.06562433 0.74991541 3.06562433 -1.5 2 C-2.139375 1.7525 -2.77875 1.505 -3.4375 1.25 C-2.4375 0.25 -2.4375 0.25 0 0 Z " fill="#F9FCF5" transform="translate(100.4375,67.75)"/>
<path d="M0 0 C2.97 0 5.94 0 9 0 C8.67 0.99 8.34 1.98 8 3 C5.69 3 3.38 3 1 3 C0.67 2.01 0.34 1.02 0 0 Z " fill="#8CC333" transform="translate(97,76)"/>
<path d="M0 0 C0 1.32 0 2.64 0 4 C-1.65 4 -3.3 4 -5 4 C-5 3.34 -5 2.68 -5 2 C-5.66 1.67 -6.32 1.34 -7 1 C-4.53721199 -0.231394 -2.7204945 -0.07159196 0 0 Z " fill="#DDEDC4" transform="translate(164,67)"/>
</svg>
